<?xml version="1.0" encoding="UTF-8" standalone="no"?>
<!-- Created with Inkscape (http://www.inkscape.org/) -->

<svg
   xmlns:dc="http://purl.org/dc/elements/1.1/"
   xmlns:cc="http://creativecommons.org/ns#"
   xmlns:rdf="http://www.w3.org/1999/02/22-rdf-syntax-ns#"
   xmlns:svg="http://www.w3.org/2000/svg"
   xmlns="http://www.w3.org/2000/svg"
   xmlns:sodipodi="http://sodipodi.sourceforge.net/DTD/sodipodi-0.dtd"
   xmlns:inkscape="http://www.inkscape.org/namespaces/inkscape"
   width="83.75"
   height="83.75"
   id="svg2"
   version="1.1"
   inkscape:version="0.48.2 r9819"
   sodipodi:docname="logo.svg"
   inkscape:export-filename="C:\Users\Gros\Documents\SciForge\lowdisc\logo.png"
   inkscape:export-xdpi="34.385765"
   inkscape:export-ydpi="34.385765">
  <defs
     id="defs4" />
  <sodipodi:namedview
     id="base"
     pagecolor="#ffffff"
     bordercolor="#666666"
     borderopacity="1.0"
     inkscape:pageopacity="0.0"
     inkscape:pageshadow="2"
     inkscape:zoom="1.979899"
     inkscape:cx="134.72269"
     inkscape:cy="19.471668"
     inkscape:document-units="px"
     inkscape:current-layer="layer1"
     showgrid="false"
     inkscape:window-width="1280"
     inkscape:window-height="962"
     inkscape:window-x="-8"
     inkscape:window-y="-8"
     inkscape:window-maximized="1"
     fit-margin-top="0"
     fit-margin-left="0"
     fit-margin-right="0"
     fit-margin-bottom="0" />
  <metadata
     id="metadata7">
    <rdf:RDF>
      <cc:Work
         rdf:about="">
        <dc:format>image/svg+xml</dc:format>
        <dc:type
           rdf:resource="http://purl.org/dc/dcmitype/StillImage" />
        <dc:title></dc:title>
      </cc:Work>
    </rdf:RDF>
  </metadata>
  <g
     inkscape:label="Layer 1"
     inkscape:groupmode="layer"
     id="layer1"
     transform="translate(-342.52566,-485.69934)">
    <path
       id="path3001"
       style="fill:#ffffff;fill-opacity:1;fill-rule:nonzero;stroke:none;stroke-width:2.50000000000000000;stroke-miterlimit:10;stroke-dasharray:none;stroke-linejoin:round"
       d="m 343.15066,485.69934 -0.44194,1.06694 82.5,82.5 1.06694,-0.44194 0,-82.5 -0.625,-0.625 -82.5,0 z"
       inkscape:connector-curvature="0" />
    <path
       id="path3005"
       style="fill:#ffffff;fill-opacity:1;fill-rule:nonzero;stroke:none;stroke-width:2.50000000000000000;stroke-miterlimit:10;stroke-dasharray:none;stroke-linejoin:round"
       d="m 343.5926,485.8824 -1.06694,0.44194 0,82.5 0.625,0.625 82.5,0 0.44194,-1.06694 -82.5,-82.5 z"
       inkscape:connector-curvature="0" />
    <path
       id="path3009"
       style="fill:#ffffff;fill-opacity:1;fill-rule:nonzero;stroke:none;stroke-width:2.50000000000000000;stroke-miterlimit:10;stroke-dasharray:none;stroke-linejoin:round"
       d="m 425.02566,486.32434 0,82.5 0.62596,0.625 0.62404,-0.625 0,-82.5 -1.25,0 z"
       inkscape:connector-curvature="0" />
    <path
       id="path3013"
       style="fill:#ffffff;fill-opacity:1;fill-rule:nonzero;stroke:none;stroke-width:2.50000000000000000;stroke-miterlimit:10;stroke-dasharray:none;stroke-linejoin:round"
       d="m 342.52566,486.32434 0,82.5 0.62596,0.625 0.62404,-0.625 0,-82.5 -1.25,0 z"
       inkscape:connector-curvature="0" />
    <path
       id="path3017"
       style="fill:#ffffff;fill-opacity:1;fill-rule:nonzero;stroke:none;stroke-width:2.50000000000000000;stroke-miterlimit:10;stroke-dasharray:none;stroke-linejoin:round"
       d="m 343.15066,485.69934 -0.44194,1.06694 82.5,82.5 1.06694,-0.44194 0,-82.5 -0.625,-0.625 -82.5,0 z"
       inkscape:connector-curvature="0" />
    <path
       id="path3021"
       style="fill:#ffffff;fill-opacity:1;fill-rule:nonzero;stroke:none;stroke-width:2.50000000000000000;stroke-miterlimit:10;stroke-dasharray:none;stroke-linejoin:round"
       d="m 343.5926,485.8824 -1.06694,0.44194 0,82.5 0.625,0.625 82.5,0 0.44194,-1.06694 -82.5,-82.5 z"
       inkscape:connector-curvature="0" />
    <path
       id="path3025"
       style="fill:#ffffff;fill-opacity:1;fill-rule:nonzero;stroke:none;stroke-width:2.50000000000000000;stroke-miterlimit:10;stroke-dasharray:none;stroke-linejoin:round"
       d="m 425.6497,485.69934 -0.62404,0.625 0,82.5 1.25,0 0,-82.5 -0.62596,-0.625 z"
       inkscape:connector-curvature="0" />
    <path
       id="path3029"
       style="fill:#ffffff;fill-opacity:1;fill-rule:nonzero;stroke:none;stroke-width:2.50000000000000000;stroke-miterlimit:10;stroke-dasharray:none;stroke-linejoin:round"
       d="m 343.1497,485.69934 -0.62404,0.625 0,82.5 1.25,0 0,-82.5 -0.62596,-0.625 z"
       inkscape:connector-curvature="0" />
    <path
       id="path3033"
       style="fill:#ffffff;fill-opacity:1;fill-rule:nonzero;stroke:none;stroke-width:2.50000000000000000;stroke-miterlimit:10;stroke-dasharray:none;stroke-linejoin:round"
       d="m 343.15066,485.69934 0,1.25 82.5,0 0,-0.625 0,-0.625 -82.5,0 z"
       inkscape:connector-curvature="0" />
    <path
       id="path3037"
       style="fill:#ffffff;fill-opacity:1;fill-rule:nonzero;stroke:none;stroke-width:2.50000000000000000;stroke-miterlimit:10;stroke-dasharray:none;stroke-linejoin:round"
       d="m 343.15066,485.69934 -9.6e-4,0 9.6e-4,1.25 82.5,0 0,-0.625 0,-0.625 -82.5,0 z"
       inkscape:connector-curvature="0" />
    <path
       id="path3041"
       style="fill:#ffffff;fill-opacity:1;fill-rule:nonzero;stroke:none;stroke-width:2.50000000000000000;stroke-miterlimit:10;stroke-dasharray:none;stroke-linejoin:round"
       d="m 343.15066,568.19934 0,1.25 82.5,0 0,-0.625 0,-0.625 -82.5,0 z"
       inkscape:connector-curvature="0" />
    <path
       id="path3045"
       style="fill:#ffffff;fill-opacity:1;fill-rule:nonzero;stroke:none;stroke-width:2.50000000000000000;stroke-miterlimit:10;stroke-dasharray:none;stroke-linejoin:round"
       d="m 343.1497,568.19934 9.6e-4,1.25 82.5,0 0,-0.625 0,-0.625 -82.50096,0 z"
       inkscape:connector-curvature="0" />
    <path
       id="path3049"
       style="fill:none;stroke:#000000;stroke-width:2.50000000000000000;stroke-linecap:butt;stroke-linejoin:round;stroke-miterlimit:10;stroke-opacity:1;stroke-dasharray:none"
       d="m 343.15066,486.32434 82.5,0"
       inkscape:connector-curvature="0" />
    <path
       id="path3053"
       style="fill:none;stroke:#000000;stroke-width:2.50000000000000000;stroke-linecap:butt;stroke-linejoin:round;stroke-miterlimit:10;stroke-opacity:1;stroke-dasharray:none"
       d="m 425.65066,486.32434 0,82.5"
       inkscape:connector-curvature="0" />
    <path
       id="path3057"
       style="fill:none;stroke:#000000;stroke-width:2.50000000000000000;stroke-linecap:butt;stroke-linejoin:round;stroke-miterlimit:10;stroke-opacity:1;stroke-dasharray:none"
       d="m 425.65066,568.82434 0,0"
       inkscape:connector-curvature="0" />
    <path
       id="path3085"
       style="fill:none;stroke:#000000;stroke-width:2.50000000000000000;stroke-linecap:butt;stroke-linejoin:round;stroke-miterlimit:10;stroke-opacity:1;stroke-dasharray:none"
       d="m 425.65066,568.82434 -82.5,0"
       inkscape:connector-curvature="0" />
    <path
       id="path3113"
       style="fill:none;stroke:#000000;stroke-width:2.50000000000000000;stroke-linecap:butt;stroke-linejoin:round;stroke-miterlimit:10;stroke-opacity:1;stroke-dasharray:none"
       d="m 343.15066,486.32434 0,82.5"
       inkscape:connector-curvature="0" />
    <path
       id="path3125"
       style="fill:none;stroke:#ff0000;stroke-width:2.50000000000000000;stroke-linecap:butt;stroke-linejoin:round;stroke-miterlimit:10;stroke-opacity:1;stroke-dasharray:none"
       d="m 384.40066,568.82434 0,-82.5"
       inkscape:connector-curvature="0" />
    <path
       id="path3129"
       style="fill:none;stroke:#ff0000;stroke-width:2.50000000000000000;stroke-linecap:butt;stroke-linejoin:round;stroke-miterlimit:10;stroke-opacity:1;stroke-dasharray:none"
       d="m 343.15066,541.32434 82.5,0"
       inkscape:connector-curvature="0" />
    <path
       id="path3133"
       style="fill:none;stroke:#ff0000;stroke-width:2.50000000000000000;stroke-linecap:butt;stroke-linejoin:round;stroke-miterlimit:10;stroke-opacity:1;stroke-dasharray:none"
       d="m 343.15066,513.82434 82.5,0"
       inkscape:connector-curvature="0" />
    <path
       id="path3137"
       style="fill:#ffffff;fill-opacity:1;fill-rule:nonzero;stroke:none;stroke-width:2.50000000000000000;stroke-miterlimit:10;stroke-dasharray:none;stroke-linejoin:round"
       d="m 388.15066,541.32434 c 0,2.07107 -1.67893,3.75 -3.75,3.75 -2.07107,0 -3.75,-1.67893 -3.75,-3.75 0,-2.07107 1.67893,-3.75 3.75,-3.75 2.07107,0 3.75,1.67893 3.75,3.75 z"
       inkscape:connector-curvature="0" />
    <path
       id="path3141"
       style="fill:none;stroke:#0000ff;stroke-width:2.50000000000000000;stroke-linecap:butt;stroke-linejoin:round;stroke-miterlimit:10;stroke-opacity:1;stroke-dasharray:none"
       d="m 388.15066,541.32434 c 0,2.07107 -1.67893,3.75 -3.75,3.75 -2.07107,0 -3.75,-1.67893 -3.75,-3.75 0,-2.07107 1.67893,-3.75 3.75,-3.75 2.07107,0 3.75,1.67893 3.75,3.75 z"
       inkscape:connector-curvature="0" />
    <path
       id="path3145"
       style="fill:#ffffff;fill-opacity:1;fill-rule:nonzero;stroke:none;stroke-width:2.50000000000000000;stroke-miterlimit:10;stroke-dasharray:none;stroke-linejoin:round"
       d="m 367.52566,513.82434 c 0,2.07107 -1.67893,3.75 -3.75,3.75 -2.07107,0 -3.75,-1.67893 -3.75,-3.75 0,-2.07107 1.67893,-3.75 3.75,-3.75 2.07107,0 3.75,1.67893 3.75,3.75 z"
       inkscape:connector-curvature="0" />
    <path
       id="path3149"
       style="fill:none;stroke:#0000ff;stroke-width:2.50000000000000000;stroke-linecap:butt;stroke-linejoin:round;stroke-miterlimit:10;stroke-opacity:1;stroke-dasharray:none"
       d="m 367.52566,513.82434 c 0,2.07107 -1.67893,3.75 -3.75,3.75 -2.07107,0 -3.75,-1.67893 -3.75,-3.75 0,-2.07107 1.67893,-3.75 3.75,-3.75 2.07107,0 3.75,1.67893 3.75,3.75 z"
       inkscape:connector-curvature="0" />
    <path
       id="path3153"
       style="fill:#ffffff;fill-opacity:1;fill-rule:nonzero;stroke:none;stroke-width:2.50000000000000000;stroke-miterlimit:10;stroke-dasharray:none;stroke-linejoin:round"
       d="m 408.77566,559.65767 c 0,2.07107 -1.67893,3.75 -3.75,3.75 -2.07107,0 -3.75,-1.67893 -3.75,-3.75 0,-2.07107 1.67893,-3.75 3.75,-3.75 2.07107,0 3.75,1.67893 3.75,3.75 z"
       inkscape:connector-curvature="0" />
    <path
       id="path3157"
       style="fill:none;stroke:#0000ff;stroke-width:2.50000000000000000;stroke-linecap:butt;stroke-linejoin:round;stroke-miterlimit:10;stroke-opacity:1;stroke-dasharray:none"
       d="m 408.77566,559.65767 c 0,2.07107 -1.67893,3.75 -3.75,3.75 -2.07107,0 -3.75,-1.67893 -3.75,-3.75 0,-2.07107 1.67893,-3.75 3.75,-3.75 2.07107,0 3.75,1.67893 3.75,3.75 z"
       inkscape:connector-curvature="0" />
    <path
       id="path3161"
       style="fill:#ffffff;fill-opacity:1;fill-rule:nonzero;stroke:none;stroke-width:2.50000000000000000;stroke-miterlimit:10;stroke-dasharray:none;stroke-linejoin:round"
       d="m 357.21316,532.15767 c 0,2.07107 -1.67893,3.75 -3.75,3.75 -2.07107,0 -3.75,-1.67893 -3.75,-3.75 0,-2.07107 1.67893,-3.75 3.75,-3.75 2.07107,0 3.75,1.67893 3.75,3.75 z"
       inkscape:connector-curvature="0" />
    <path
       id="path3165"
       style="fill:none;stroke:#0000ff;stroke-width:2.50000000000000000;stroke-linecap:butt;stroke-linejoin:round;stroke-miterlimit:10;stroke-opacity:1;stroke-dasharray:none"
       d="m 357.21316,532.15767 c 0,2.07107 -1.67893,3.75 -3.75,3.75 -2.07107,0 -3.75,-1.67893 -3.75,-3.75 0,-2.07107 1.67893,-3.75 3.75,-3.75 2.07107,0 3.75,1.67893 3.75,3.75 z"
       inkscape:connector-curvature="0" />
    <path
       id="path3169"
       style="fill:#ffffff;fill-opacity:1;fill-rule:nonzero;stroke:none;stroke-width:2.50000000000000000;stroke-miterlimit:10;stroke-dasharray:none;stroke-linejoin:round"
       d="m 398.46316,504.65767 c 0,2.07107 -1.67893,3.75 -3.75,3.75 -2.07107,0 -3.75,-1.67893 -3.75,-3.75 0,-2.07107 1.67893,-3.75 3.75,-3.75 2.07107,0 3.75,1.67893 3.75,3.75 z"
       inkscape:connector-curvature="0" />
    <path
       id="path3173"
       style="fill:none;stroke:#0000ff;stroke-width:2.50000000000000000;stroke-linecap:butt;stroke-linejoin:round;stroke-miterlimit:10;stroke-opacity:1;stroke-dasharray:none"
       d="m 398.46316,504.65767 c 0,2.07107 -1.67893,3.75 -3.75,3.75 -2.07107,0 -3.75,-1.67893 -3.75,-3.75 0,-2.07107 1.67893,-3.75 3.75,-3.75 2.07107,0 3.75,1.67893 3.75,3.75 z"
       inkscape:connector-curvature="0" />
    <path
       id="path3177"
       style="fill:#ffffff;fill-opacity:1;fill-rule:nonzero;stroke:none;stroke-width:2.50000000000000000;stroke-miterlimit:10;stroke-dasharray:none;stroke-linejoin:round"
       d="m 377.83816,550.49101 c 0,2.07107 -1.67893,3.75 -3.75,3.75 -2.07107,0 -3.75,-1.67893 -3.75,-3.75 0,-2.07107 1.67893,-3.75 3.75,-3.75 2.07107,0 3.75,1.67893 3.75,3.75 z"
       inkscape:connector-curvature="0" />
    <path
       id="path3181"
       style="fill:none;stroke:#0000ff;stroke-width:2.50000000000000000;stroke-linecap:butt;stroke-linejoin:round;stroke-miterlimit:10;stroke-opacity:1;stroke-dasharray:none"
       d="m 377.83816,550.49101 c 0,2.07107 -1.67893,3.75 -3.75,3.75 -2.07107,0 -3.75,-1.67893 -3.75,-3.75 0,-2.07107 1.67893,-3.75 3.75,-3.75 2.07107,0 3.75,1.67893 3.75,3.75 z"
       inkscape:connector-curvature="0" />
    <path
       id="path3185"
       style="fill:none;stroke:#000000;stroke-width:2.50000000000000000;stroke-linecap:butt;stroke-linejoin:round;stroke-miterlimit:10;stroke-opacity:1;stroke-dasharray:none"
       d="m 343.15066,568.82434 0,-82.5"
       inkscape:connector-curvature="0" />
    <path
       id="path3189"
       style="fill:none;stroke:#000000;stroke-width:2.50000000000000000;stroke-linecap:butt;stroke-linejoin:round;stroke-miterlimit:10;stroke-opacity:1;stroke-dasharray:none"
       d="m 343.15066,486.32434 0,0"
       inkscape:connector-curvature="0" />
    <path
       id="path3197"
       style="fill:none;stroke:#000000;stroke-width:2.50000000000000000;stroke-linecap:butt;stroke-linejoin:round;stroke-miterlimit:10;stroke-opacity:1;stroke-dasharray:none"
       d="m 425.65066,486.32434 -82.5,0"
       inkscape:connector-curvature="0" />
    <path
       id="path3205"
       style="fill:none;stroke:#000000;stroke-width:2.50000000000000000;stroke-linecap:butt;stroke-linejoin:round;stroke-miterlimit:10;stroke-opacity:1;stroke-dasharray:none"
       d="m 425.65066,486.32434 0,0"
       inkscape:connector-curvature="0" />
  </g>
</svg>
