<?xml version="1.0" encoding="UTF-8" standalone="no"?>
<!-- Created with Inkscape (http://www.inkscape.org/) -->

<svg
   xmlns:dc="http://purl.org/dc/elements/1.1/"
   xmlns:cc="http://creativecommons.org/ns#"
   xmlns:rdf="http://www.w3.org/1999/02/22-rdf-syntax-ns#"
   xmlns:svg="http://www.w3.org/2000/svg"
   xmlns="http://www.w3.org/2000/svg"
   xmlns:sodipodi="http://sodipodi.sourceforge.net/DTD/sodipodi-0.dtd"
   xmlns:inkscape="http://www.inkscape.org/namespaces/inkscape"
   width="159.20898"
   height="133.60352"
   id="svg2985"
   version="1.1"
   inkscape:version="0.48.2 r9819"
   sodipodi:docname="leaping-principle.svg">
  <defs
     id="defs2987" />
  <sodipodi:namedview
     id="base"
     pagecolor="#ffffff"
     bordercolor="#666666"
     borderopacity="1.0"
     inkscape:pageopacity="0.0"
     inkscape:pageshadow="2"
     inkscape:zoom="2.8"
     inkscape:cx="112.1822"
     inkscape:cy="56.592385"
     inkscape:document-units="px"
     inkscape:current-layer="layer1"
     showgrid="false"
     inkscape:window-width="1280"
     inkscape:window-height="962"
     inkscape:window-x="-8"
     inkscape:window-y="-8"
     inkscape:window-maximized="1"
     fit-margin-top="0"
     fit-margin-left="0"
     fit-margin-right="0"
     fit-margin-bottom="0" />
  <metadata
     id="metadata2990">
    <rdf:RDF>
      <cc:Work
         rdf:about="">
        <dc:format>image/svg+xml</dc:format>
        <dc:type
           rdf:resource="http://purl.org/dc/dcmitype/StillImage" />
        <dc:title />
      </cc:Work>
    </rdf:RDF>
  </metadata>
  <g
     inkscape:label="Layer 1"
     inkscape:groupmode="layer"
     id="layer1"
     transform="translate(-58.069122,-57.750572)">
    <text
       xml:space="preserve"
       style="font-size:10px;font-style:normal;font-weight:normal;line-height:125%;letter-spacing:0px;word-spacing:0px;fill:#000000;fill-opacity:1;stroke:none;font-family:Sans"
       x="58.083771"
       y="64.938072"
       id="text2993"
       sodipodi:linespacing="125%"><tspan
         sodipodi:role="line"
         id="tspan2995"
         x="58.083771"
         y="64.938072">L=0</tspan><tspan
         sodipodi:role="line"
         x="58.083771"
         y="77.438072"
         id="tspan2997">Before : 1  2  3  4  5  6  7  8  9  10 ...</tspan><tspan
         sodipodi:role="line"
         x="58.083771"
         y="89.938072"
         id="tspan3814">After : 1,2,3,4,5...</tspan><tspan
         sodipodi:role="line"
         x="58.083771"
         y="102.43807"
         id="tspan2999" /><tspan
         sodipodi:role="line"
         x="58.083771"
         y="114.93807"
         id="tspan3001">L=1</tspan><tspan
         sodipodi:role="line"
         x="58.083771"
         y="127.43807"
         id="tspan3003">Before : 1  2  3  4  5  6  7  8  9  10 ...</tspan><tspan
         sodipodi:role="line"
         x="58.083771"
         y="139.93808"
         id="tspan3816">After : 2,4,6,8,10 ...</tspan><tspan
         sodipodi:role="line"
         x="58.083771"
         y="152.43808"
         id="tspan3818" /><tspan
         sodipodi:role="line"
         x="58.083771"
         y="164.93808"
         id="tspan3820">L=2</tspan><tspan
         sodipodi:role="line"
         x="58.083771"
         y="177.43808"
         id="tspan3822">Before : 1  2  3  4  5  6  7  8  9  10 ...</tspan><tspan
         sodipodi:role="line"
         x="58.083771"
         y="189.93808"
         id="tspan3824">After : 3,6,9 ...</tspan></text>
    <path
       sodipodi:type="arc"
       style="fill:none;stroke:#000000;stroke-opacity:1"
       id="path3005"
       sodipodi:cx="69.285713"
       sodipodi:cy="112.64732"
       sodipodi:rx="6.0714288"
       sodipodi:ry="6.0714288"
       d="m 75.357142,112.64732 c 0,3.35316 -2.718271,6.07143 -6.071429,6.07143 -3.353157,0 -6.071429,-2.71827 -6.071429,-6.07143 0,-3.35315 2.718272,-6.07143 6.071429,-6.07143 3.353158,0 6.071429,2.71828 6.071429,6.07143 z"
       transform="translate(40.554035,11.196369)" />
    <path
       sodipodi:type="arc"
       style="fill:none;stroke:#000000;stroke-opacity:1"
       id="path3005-1"
       sodipodi:cx="69.285713"
       sodipodi:cy="112.64732"
       sodipodi:rx="6.0714288"
       sodipodi:ry="6.0714288"
       d="m 75.357142,112.64732 c 0,3.35316 -2.718271,6.07143 -6.071429,6.07143 -3.353157,0 -6.071429,-2.71827 -6.071429,-6.07143 0,-3.35315 2.718272,-6.07143 6.071429,-6.07143 3.353158,0 6.071429,2.71828 6.071429,6.07143 z"
       transform="translate(63.505271,11.196369)" />
    <path
       sodipodi:type="arc"
       style="fill:none;stroke:#000000;stroke-opacity:1"
       id="path3005-7"
       sodipodi:cx="69.285713"
       sodipodi:cy="112.64732"
       sodipodi:rx="6.0714288"
       sodipodi:ry="6.0714288"
       d="m 75.357142,112.64732 c 0,3.35316 -2.718271,6.07143 -6.071429,6.07143 -3.353157,0 -6.071429,-2.71827 -6.071429,-6.07143 0,-3.35315 2.718272,-6.07143 6.071429,-6.07143 3.353158,0 6.071429,2.71828 6.071429,6.07143 z"
       transform="translate(85.132539,11.196369)" />
    <path
       sodipodi:type="arc"
       style="fill:none;stroke:#000000;stroke-opacity:1"
       id="path3005-4"
       sodipodi:cx="69.285713"
       sodipodi:cy="112.64732"
       sodipodi:rx="6.0714288"
       sodipodi:ry="6.0714288"
       d="m 75.357142,112.64732 c 0,3.35316 -2.718271,6.07143 -6.071429,6.07143 -3.353157,0 -6.071429,-2.71827 -6.071429,-6.07143 0,-3.35315 2.718272,-6.07143 6.071429,-6.07143 3.353158,0 6.071429,2.71828 6.071429,6.07143 z"
       transform="translate(107.50473,11.196369)" />
    <path
       sodipodi:type="arc"
       style="fill:none;stroke:#000000;stroke-opacity:1"
       id="path3005-0"
       sodipodi:cx="69.285713"
       sodipodi:cy="112.64732"
       sodipodi:rx="7.0815811"
       sodipodi:ry="7.0815811"
       d="m 76.367294,112.64732 c 0,3.91105 -3.170532,7.08158 -7.081581,7.08158 -3.911049,0 -7.081581,-3.17053 -7.081581,-7.08158 0,-3.91105 3.170532,-7.08158 7.081581,-7.08158 3.911049,0 7.081581,3.17053 7.081581,7.08158 z"
       transform="translate(132.91264,11.196369)" />
    <path
       sodipodi:type="arc"
       style="fill:none;stroke:#000000;stroke-opacity:1"
       id="path3005-9"
       sodipodi:cx="69.285713"
       sodipodi:cy="112.64732"
       sodipodi:rx="6.0714288"
       sodipodi:ry="6.0714288"
       d="m 75.357142,112.64732 c 0,3.35316 -2.718271,6.07143 -6.071429,6.07143 -3.353157,0 -6.071429,-2.71827 -6.071429,-6.07143 0,-3.35315 2.718272,-6.07143 6.071429,-6.07143 3.353158,0 6.071429,2.71828 6.071429,6.07143 z"
       transform="translate(51.680054,61.513488)" />
    <path
       sodipodi:type="arc"
       style="fill:none;stroke:#000000;stroke-opacity:1"
       id="path3005-48"
       sodipodi:cx="69.285713"
       sodipodi:cy="112.64732"
       sodipodi:rx="6.0714288"
       sodipodi:ry="6.0714288"
       d="m 75.357142,112.64732 c 0,3.35316 -2.718271,6.07143 -6.071429,6.07143 -3.353157,0 -6.071429,-2.71827 -6.071429,-6.07143 0,-3.35315 2.718272,-6.07143 6.071429,-6.07143 3.353158,0 6.071429,2.71828 6.071429,6.07143 z"
       transform="translate(85.267626,61.513488)" />
    <path
       sodipodi:type="arc"
       style="fill:none;stroke:#000000;stroke-opacity:1"
       id="path3005-8"
       sodipodi:cx="69.285713"
       sodipodi:cy="112.64732"
       sodipodi:rx="6.0714288"
       sodipodi:ry="6.0714288"
       d="m 75.357142,112.64732 c 0,3.35316 -2.718271,6.07143 -6.071429,6.07143 -3.353157,0 -6.071429,-2.71827 -6.071429,-6.07143 0,-3.35315 2.718272,-6.07143 6.071429,-6.07143 3.353158,0 6.071429,2.71828 6.071429,6.07143 z"
       transform="translate(118.35012,61.513488)" />
  </g>
</svg>
